solid Exported from Blender-2.76 (sub 0)
facet normal -1.000000 0.000000 0.000000
outer loop
vertex -30.000000 30.000000 -30.000000
vertex -30.000000 -30.000000 -30.000000
vertex -30.000000 -30.000000 30.000000
endloop
endfacet
facet normal -1.000000 0.000000 0.000000
outer loop
vertex -30.000000 -30.000000 30.000000
vertex -30.000000 30.000000 30.000000
vertex -30.000000 30.000000 1.680000
endloop
endfacet
facet normal 0.000000 -1.000000 0.000000
outer loop
vertex -30.000000 30.000000 1.680000
vertex -30.000000 30.000000 1.429999
vertex -30.000000 30.000000 1.000000
endloop
endfacet
facet normal 0.000000 -1.000000 0.000000
outer loop
vertex -30.000000 30.000000 1.000000
vertex -30.000000 30.000000 -1.000000
vertex -30.000000 30.000000 -1.430000
endloop
endfacet
facet normal -1.000000 0.000000 0.000000
outer loop
vertex -30.000000 30.000000 -1.680000
vertex -30.000000 30.000000 -30.000000
vertex -30.000000 -30.000000 30.000000
endloop
endfacet
facet normal 0.000000 -1.000000 0.000000
outer loop
vertex -30.000000 30.000000 1.000000
vertex -30.000000 30.000000 -1.430000
vertex -30.000000 30.000000 -1.680000
endloop
endfacet
facet normal -1.000000 0.000001 0.000000
outer loop
vertex -30.000000 -30.000000 30.000000
vertex -30.000000 30.000000 1.680000
vertex -30.000000 30.000000 1.000000
endloop
endfacet
facet normal -1.000000 0.000000 0.000000
outer loop
vertex -30.000000 -30.000000 30.000000
vertex -30.000000 30.000000 1.000000
vertex -30.000000 30.000000 -1.680000
endloop
endfacet
facet normal 0.000000 1.000000 0.000000
outer loop
vertex 1.680000 30.000000 1.680000
vertex 1.680000 30.000000 30.000000
vertex 30.000000 30.000000 30.000000
endloop
endfacet
facet normal 0.000000 1.000000 0.000000
outer loop
vertex 30.000000 30.000000 30.000000
vertex 30.000000 30.000000 1.680000
vertex 1.680000 30.000000 1.680000
endloop
endfacet
facet normal 1.000000 0.000000 0.000000
outer loop
vertex 30.000000 -30.000000 -30.000000
vertex 30.000000 30.000000 -30.000000
vertex 30.000000 30.000000 -1.680000
endloop
endfacet
facet normal 0.000000 1.000000 0.000000
outer loop
vertex 30.000000 30.000000 -1.680000
vertex 30.000000 30.000000 -1.430000
vertex 30.000000 30.000000 -1.000000
endloop
endfacet
facet normal 0.000000 -1.000000 0.000000
outer loop
vertex 30.000000 30.000000 -1.000000
vertex 30.000000 30.000000 1.000000
vertex 30.000000 30.000000 1.429999
endloop
endfacet
facet normal 0.000000 1.000000 0.000000
outer loop
vertex 30.000000 30.000000 1.429999
vertex 30.000000 30.000000 1.680000
vertex 30.000000 30.000000 30.000000
endloop
endfacet
facet normal 1.000000 0.000000 0.000000
outer loop
vertex 30.000000 30.000000 30.000000
vertex 30.000000 -30.000000 30.000000
vertex 30.000000 -30.000000 -30.000000
endloop
endfacet
facet normal 1.000000 0.000002 0.000000
outer loop
vertex 30.000000 -30.000000 -30.000000
vertex 30.000000 30.000000 -1.680000
vertex 30.000000 30.000000 -1.000000
endloop
endfacet
facet normal 1.000000 0.000000 0.000000
outer loop
vertex 30.000000 30.000000 1.429999
vertex 30.000000 30.000000 30.000000
vertex 30.000000 -30.000000 -30.000000
endloop
endfacet
facet normal 1.000000 0.000000 0.000000
outer loop
vertex 30.000000 30.000000 -1.000000
vertex 30.000000 30.000000 1.429999
vertex 30.000000 -30.000000 -30.000000
endloop
endfacet
facet normal 0.000000 -1.000000 0.000000
outer loop
vertex -30.000000 -30.000000 30.000000
vertex -30.000000 -30.000000 -30.000000
vertex 30.000000 -30.000000 -30.000000
endloop
endfacet
facet normal 0.000000 -1.000000 0.000000
outer loop
vertex 30.000000 -30.000000 -30.000000
vertex 30.000000 -30.000000 30.000000
vertex -30.000000 -30.000000 30.000000
endloop
endfacet
facet normal 0.000000 0.000000 -1.000000
outer loop
vertex -30.000000 -30.000000 -30.000000
vertex -30.000000 30.000000 -30.000000
vertex -1.680000 30.000000 -30.000000
endloop
endfacet
facet normal 0.000000 0.000000 0.000000
outer loop
vertex -1.680000 30.000000 -30.000000
vertex -1.430000 30.000000 -30.000000
vertex -1.000000 30.000000 -30.000000
endloop
endfacet
facet normal 0.000000 0.000000 -1.000000
outer loop
vertex -1.000000 30.000000 -30.000000
vertex 1.000000 30.000000 -30.000000
vertex 1.430000 30.000000 -30.000000
endloop
endfacet
facet normal 0.000000 0.000000 0.000000
outer loop
vertex 1.430000 30.000000 -30.000000
vertex 1.680000 30.000000 -30.000000
vertex 30.000000 30.000000 -30.000000
endloop
endfacet
facet normal 0.000000 0.000000 -1.000000
outer loop
vertex 30.000000 30.000000 -30.000000
vertex 30.000000 -30.000000 -30.000000
vertex -30.000000 -30.000000 -30.000000
endloop
endfacet
facet normal 0.000000 0.000000 -1.000000
outer loop
vertex -30.000000 -30.000000 -30.000000
vertex -1.680000 30.000000 -30.000000
vertex -1.000000 30.000000 -30.000000
endloop
endfacet
facet normal 0.000000 0.000000 0.000000
outer loop
vertex -1.000000 30.000000 -30.000000
vertex 1.430000 30.000000 -30.000000
vertex 30.000000 30.000000 -30.000000
endloop
endfacet
facet normal 0.000000 0.000000 -1.000000
outer loop
vertex -1.000000 30.000000 -30.000000
vertex 30.000000 30.000000 -30.000000
vertex -30.000000 -30.000000 -30.000000
endloop
endfacet
facet normal 0.000000 0.000000 1.000000
outer loop
vertex 30.000000 -30.000000 30.000000
vertex 30.000000 30.000000 30.000000
vertex 1.680000 30.000000 30.000000
endloop
endfacet
facet normal 0.000000 0.000000 0.000000
outer loop
vertex 1.680000 30.000000 30.000000
vertex 1.430000 30.000000 30.000000
vertex 1.000001 30.000000 30.000000
endloop
endfacet
facet normal 0.000000 0.000000 1.000000
outer loop
vertex 1.000001 30.000000 30.000000
vertex -1.000000 30.000000 30.000000
vertex -1.429999 30.000000 30.000000
endloop
endfacet
facet normal 0.000000 0.000000 -1.000000
outer loop
vertex -1.429999 30.000000 30.000000
vertex -1.680000 30.000000 30.000000
vertex -30.000000 30.000000 30.000000
endloop
endfacet
facet normal 0.000000 0.000000 1.000000
outer loop
vertex -30.000000 30.000000 30.000000
vertex -30.000000 -30.000000 30.000000
vertex 30.000000 -30.000000 30.000000
endloop
endfacet
facet normal 0.000000 0.000000 1.000000
outer loop
vertex 30.000000 -30.000000 30.000000
vertex 1.680000 30.000000 30.000000
vertex 1.000001 30.000000 30.000000
endloop
endfacet
facet normal 0.000000 0.000000 0.000000
outer loop
vertex 1.000001 30.000000 30.000000
vertex -1.429999 30.000000 30.000000
vertex -30.000000 30.000000 30.000000
endloop
endfacet
facet normal 0.000000 0.000000 1.000000
outer loop
vertex 1.000001 30.000000 30.000000
vertex -30.000000 30.000000 30.000000
vertex 30.000000 -30.000000 30.000000
endloop
endfacet
facet normal 0.000000 1.000000 0.000000
outer loop
vertex 1.680000 30.000000 -30.000000
vertex 1.680000 30.000000 -1.680000
vertex 30.000000 30.000000 -1.680000
endloop
endfacet
facet normal 0.000000 1.000000 0.000000
outer loop
vertex 30.000000 30.000000 -1.680000
vertex 30.000000 30.000000 -30.000000
vertex 1.680000 30.000000 -30.000000
endloop
endfacet
facet normal 0.000000 1.000000 0.000000
outer loop
vertex 1.680000 30.000000 -1.680000
vertex 1.680000 30.000000 -1.430000
vertex 30.000000 30.000000 -1.430000
endloop
endfacet
facet normal 0.000000 1.000000 0.000000
outer loop
vertex 30.000000 30.000000 -1.430000
vertex 30.000000 30.000000 -1.680000
vertex 1.680000 30.000000 -1.680000
endloop
endfacet
facet normal 0.000000 1.000000 0.000000
outer loop
vertex 1.680000 30.000000 -1.430000
vertex 1.680000 30.000000 -1.000000
vertex 30.000000 30.000000 -1.000000
endloop
endfacet
facet normal 0.000000 1.000000 0.000000
outer loop
vertex 30.000000 30.000000 -1.000000
vertex 30.000000 30.000000 -1.430000
vertex 1.680000 30.000000 -1.430000
endloop
endfacet
facet normal 0.000000 1.000000 0.000000
outer loop
vertex 1.430000 30.000000 -1.430000
vertex 1.430000 30.000000 -1.000000
vertex 1.680000 30.000000 -1.000000
endloop
endfacet
facet normal 0.000000 1.000000 0.000000
outer loop
vertex 1.680000 30.000000 -1.000000
vertex 1.680000 30.000000 -1.430000
vertex 1.430000 30.000000 -1.430000
endloop
endfacet
facet normal 0.000000 1.000000 0.000000
outer loop
vertex 1.430000 30.000000 -1.680000
vertex 1.430000 30.000000 -1.430000
vertex 1.680000 30.000000 -1.430000
endloop
endfacet
facet normal 0.000000 1.000000 0.000000
outer loop
vertex 1.680000 30.000000 -1.430000
vertex 1.680000 30.000000 -1.680000
vertex 1.430000 30.000000 -1.680000
endloop
endfacet
facet normal 0.000000 1.000000 0.000000
outer loop
vertex 1.430000 30.000000 -30.000000
vertex 1.430000 30.000000 -1.680000
vertex 1.680000 30.000000 -1.680000
endloop
endfacet
facet normal 0.000000 1.000000 0.000000
outer loop
vertex 1.680000 30.000000 -1.680000
vertex 1.680000 30.000000 -30.000000
vertex 1.430000 30.000000 -30.000000
endloop
endfacet
facet normal 0.000000 1.000000 0.000000
outer loop
vertex 1.430000 30.000000 1.680000
vertex 1.430000 30.000000 30.000000
vertex 1.680000 30.000000 30.000000
endloop
endfacet
facet normal 0.000000 1.000000 0.000000
outer loop
vertex 1.680000 30.000000 30.000000
vertex 1.680000 30.000000 1.680000
vertex 1.430000 30.000000 1.680000
endloop
endfacet
facet normal 0.000000 1.000000 0.000000
outer loop
vertex 1.000001 30.000000 1.680000
vertex 1.000001 30.000000 30.000000
vertex 1.430000 30.000000 30.000000
endloop
endfacet
facet normal 0.000000 1.000000 0.000000
outer loop
vertex 1.430000 30.000000 30.000000
vertex 1.430000 30.000000 1.680000
vertex 1.000001 30.000000 1.680000
endloop
endfacet
facet normal 0.000000 1.000000 0.000000
outer loop
vertex 1.000000 30.000000 -30.000000
vertex 1.000001 30.000000 -1.680000
vertex 1.430000 30.000000 -1.680000
endloop
endfacet
facet normal 0.000000 1.000000 0.000000
outer loop
vertex 1.430000 30.000000 -1.680000
vertex 1.430000 30.000000 -30.000000
vertex 1.000000 30.000000 -30.000000
endloop
endfacet
facet normal 0.000000 1.000000 0.000000
outer loop
vertex 1.000001 30.000000 -1.680000
vertex 1.000001 30.000000 -1.430000
vertex 1.430000 30.000000 -1.430000
endloop
endfacet
facet normal 0.000000 1.000000 0.000000
outer loop
vertex 1.430000 30.000000 -1.430000
vertex 1.430000 30.000000 -1.680000
vertex 1.000001 30.000000 -1.680000
endloop
endfacet
facet normal 0.000000 1.000000 0.000000
outer loop
vertex 1.000001 30.000000 -1.430000
vertex 1.000001 30.000000 -1.000000
vertex 1.430000 30.000000 -1.000000
endloop
endfacet
facet normal 0.000000 1.000000 0.000000
outer loop
vertex 1.430000 30.000000 -1.000000
vertex 1.430000 30.000000 -1.430000
vertex 1.000001 30.000000 -1.430000
endloop
endfacet
facet normal 0.000000 1.000000 0.000000
outer loop
vertex -1.000000 30.000000 -1.430000
vertex -1.000000 30.000000 -1.000000
vertex 1.000001 30.000000 -1.000000
endloop
endfacet
facet normal 0.000000 1.000000 0.000000
outer loop
vertex 1.000001 30.000000 -1.000000
vertex 1.000001 30.000000 -1.430000
vertex -1.000000 30.000000 -1.430000
endloop
endfacet
facet normal 0.000000 1.000000 0.000000
outer loop
vertex -1.000000 30.000000 -30.000000
vertex -1.000000 30.000000 -1.680000
vertex 1.000001 30.000000 -1.680000
endloop
endfacet
facet normal 0.000000 1.000000 0.000000
outer loop
vertex 1.000001 30.000000 -1.680000
vertex 1.000000 30.000000 -30.000000
vertex -1.000000 30.000000 -30.000000
endloop
endfacet
facet normal 0.000000 1.000000 0.000000
outer loop
vertex -1.000000 30.000000 1.680000
vertex -1.000000 30.000000 30.000000
vertex 1.000001 30.000000 30.000000
endloop
endfacet
facet normal 0.000000 1.000000 0.000000
outer loop
vertex 1.000001 30.000000 30.000000
vertex 1.000001 30.000000 1.680000
vertex -1.000000 30.000000 1.680000
endloop
endfacet
facet normal 0.000000 1.000000 0.000000
outer loop
vertex 1.000001 30.000000 -1.000000
vertex 1.000001 30.000000 1.000000
vertex 1.430000 30.000000 1.000000
endloop
endfacet
facet normal 0.000000 1.000000 0.000000
outer loop
vertex 1.430000 30.000000 1.000000
vertex 1.430000 30.000000 -1.000000
vertex 1.000001 30.000000 -1.000000
endloop
endfacet
facet normal 0.000000 1.000000 0.000000
outer loop
vertex 1.680000 30.000000 -1.000000
vertex 1.680000 30.000000 1.000000
vertex 30.000000 30.000000 1.000000
endloop
endfacet
facet normal 0.000000 1.000000 0.000000
outer loop
vertex 30.000000 30.000000 1.000000
vertex 30.000000 30.000000 -1.000000
vertex 1.680000 30.000000 -1.000000
endloop
endfacet
facet normal 0.000000 1.000000 0.000000
outer loop
vertex -1.000000 30.000000 1.000000
vertex -1.000000 30.000000 1.429999
vertex 1.000001 30.000000 1.429999
endloop
endfacet
facet normal 0.000000 1.000000 0.000000
outer loop
vertex 1.000001 30.000000 1.429999
vertex 1.000001 30.000000 1.000000
vertex -1.000000 30.000000 1.000000
endloop
endfacet
facet normal 0.000000 1.000000 0.000000
outer loop
vertex 1.000001 30.000000 1.000000
vertex 1.000001 30.000000 1.429999
vertex 1.430000 30.000000 1.429999
endloop
endfacet
facet normal 0.000000 1.000000 0.000000
outer loop
vertex 1.430000 30.000000 1.429999
vertex 1.430000 30.000000 1.000000
vertex 1.000001 30.000000 1.000000
endloop
endfacet
facet normal 0.000000 1.000000 0.000000
outer loop
vertex 1.430000 30.000000 1.000000
vertex 1.430000 30.000000 1.429999
vertex 1.680000 30.000000 1.429999
endloop
endfacet
facet normal 0.000000 1.000000 0.000000
outer loop
vertex 1.680000 30.000000 1.429999
vertex 1.680000 30.000000 1.000000
vertex 1.430000 30.000000 1.000000
endloop
endfacet
facet normal 0.000000 1.000000 0.000000
outer loop
vertex 1.680000 30.000000 1.000000
vertex 1.680000 30.000000 1.429999
vertex 30.000000 30.000000 1.429999
endloop
endfacet
facet normal 0.000000 1.000000 0.000000
outer loop
vertex 30.000000 30.000000 1.429999
vertex 30.000000 30.000000 1.000000
vertex 1.680000 30.000000 1.000000
endloop
endfacet
facet normal 0.000000 1.000000 0.000000
outer loop
vertex 1.000001 30.000000 1.429999
vertex 1.000001 30.000000 1.680000
vertex 1.430000 30.000000 1.680000
endloop
endfacet
facet normal 0.000000 1.000000 0.000000
outer loop
vertex 1.430000 30.000000 1.680000
vertex 1.430000 30.000000 1.429999
vertex 1.000001 30.000000 1.429999
endloop
endfacet
facet normal 0.000000 1.000000 0.000000
outer loop
vertex 1.430000 30.000000 1.429999
vertex 1.430000 30.000000 1.680000
vertex 1.680000 30.000000 1.680000
endloop
endfacet
facet normal 0.000000 1.000000 0.000000
outer loop
vertex 1.680000 30.000000 1.680000
vertex 1.680000 30.000000 1.429999
vertex 1.430000 30.000000 1.429999
endloop
endfacet
facet normal 0.000000 1.000000 0.000000
outer loop
vertex 1.680000 30.000000 1.429999
vertex 1.680000 30.000000 1.680000
vertex 30.000000 30.000000 1.680000
endloop
endfacet
facet normal 0.000000 1.000000 0.000000
outer loop
vertex 30.000000 30.000000 1.680000
vertex 30.000000 30.000000 1.429999
vertex 1.680000 30.000000 1.429999
endloop
endfacet
facet normal 0.000000 1.000000 0.000000
outer loop
vertex -1.429999 30.000000 1.429999
vertex -1.429999 30.000000 1.680000
vertex -1.000000 30.000000 1.680000
endloop
endfacet
facet normal 0.000000 1.000000 0.000000
outer loop
vertex -1.000000 30.000000 1.680000
vertex -1.000000 30.000000 1.429999
vertex -1.429999 30.000000 1.429999
endloop
endfacet
facet normal 0.000000 1.000000 0.000000
outer loop
vertex -1.429999 30.000000 1.000000
vertex -1.429999 30.000000 1.429999
vertex -1.000000 30.000000 1.429999
endloop
endfacet
facet normal 0.000000 1.000000 0.000000
outer loop
vertex -1.000000 30.000000 1.429999
vertex -1.000000 30.000000 1.000000
vertex -1.429999 30.000000 1.000000
endloop
endfacet
facet normal 0.000000 1.000000 0.000000
outer loop
vertex -1.429999 30.000000 -1.000000
vertex -1.429999 30.000000 1.000000
vertex -1.000000 30.000000 1.000000
endloop
endfacet
facet normal 0.000000 1.000000 0.000000
outer loop
vertex -1.000000 30.000000 1.000000
vertex -1.000000 30.000000 -1.000000
vertex -1.429999 30.000000 -1.000000
endloop
endfacet
facet normal 0.000000 1.000000 0.000000
outer loop
vertex -1.429999 30.000000 1.680000
vertex -1.429999 30.000000 30.000000
vertex -1.000000 30.000000 30.000000
endloop
endfacet
facet normal 0.000000 1.000000 0.000000
outer loop
vertex -1.000000 30.000000 30.000000
vertex -1.000000 30.000000 1.680000
vertex -1.429999 30.000000 1.680000
endloop
endfacet
facet normal 0.000000 1.000000 -0.000000
outer loop
vertex -1.430000 30.000000 -30.000000
vertex -1.429999 30.000000 -1.680000
vertex -1.000000 30.000000 -1.680000
endloop
endfacet
facet normal 0.000000 1.000000 0.000000
outer loop
vertex -1.000000 30.000000 -1.680000
vertex -1.000000 30.000000 -30.000000
vertex -1.430000 30.000000 -30.000000
endloop
endfacet
facet normal 0.000000 1.000000 0.000000
outer loop
vertex -1.429999 30.000000 -1.680000
vertex -1.429999 30.000000 -1.430000
vertex -1.000000 30.000000 -1.430000
endloop
endfacet
facet normal 0.000000 1.000000 0.000000
outer loop
vertex -1.000000 30.000000 -1.430000
vertex -1.000000 30.000000 -1.680000
vertex -1.429999 30.000000 -1.680000
endloop
endfacet
facet normal 0.000000 1.000000 0.000000
outer loop
vertex -1.429999 30.000000 -1.430000
vertex -1.429999 30.000000 -1.000000
vertex -1.000000 30.000000 -1.000000
endloop
endfacet
facet normal 0.000000 1.000000 0.000000
outer loop
vertex -1.000000 30.000000 -1.000000
vertex -1.000000 30.000000 -1.430000
vertex -1.429999 30.000000 -1.430000
endloop
endfacet
facet normal 0.000000 1.000000 0.000000
outer loop
vertex -1.680000 30.000000 -1.430000
vertex -1.680000 30.000000 -1.000000
vertex -1.429999 30.000000 -1.000000
endloop
endfacet
facet normal 0.000000 1.000000 0.000000
outer loop
vertex -1.429999 30.000000 -1.000000
vertex -1.429999 30.000000 -1.430000
vertex -1.680000 30.000000 -1.430000
endloop
endfacet
facet normal 0.000000 1.000000 0.000000
outer loop
vertex -1.680000 30.000000 -1.680000
vertex -1.680000 30.000000 -1.430000
vertex -1.429999 30.000000 -1.430000
endloop
endfacet
facet normal 0.000000 1.000000 0.000000
outer loop
vertex -1.429999 30.000000 -1.430000
vertex -1.429999 30.000000 -1.680000
vertex -1.680000 30.000000 -1.680000
endloop
endfacet
facet normal 0.000000 1.000000 0.000000
outer loop
vertex -1.680000 30.000000 -30.000000
vertex -1.680000 30.000000 -1.680000
vertex -1.429999 30.000000 -1.680000
endloop
endfacet
facet normal 0.000000 1.000000 0.000000
outer loop
vertex -1.429999 30.000000 -1.680000
vertex -1.430000 30.000000 -30.000000
vertex -1.680000 30.000000 -30.000000
endloop
endfacet
facet normal 0.000000 1.000000 0.000000
outer loop
vertex -1.680000 30.000000 1.680000
vertex -1.680000 30.000000 30.000000
vertex -1.429999 30.000000 30.000000
endloop
endfacet
facet normal 0.000000 1.000000 0.000000
outer loop
vertex -1.429999 30.000000 30.000000
vertex -1.429999 30.000000 1.680000
vertex -1.680000 30.000000 1.680000
endloop
endfacet
facet normal 0.000000 1.000000 0.000000
outer loop
vertex -1.680000 30.000000 1.000000
vertex -1.680000 30.000000 1.429999
vertex -1.429999 30.000000 1.429999
endloop
endfacet
facet normal 0.000000 1.000000 0.000000
outer loop
vertex -1.429999 30.000000 1.429999
vertex -1.429999 30.000000 1.000000
vertex -1.680000 30.000000 1.000000
endloop
endfacet
facet normal 0.000000 1.000000 0.000000
outer loop
vertex -1.680000 30.000000 1.429999
vertex -1.680000 30.000000 1.680000
vertex -1.429999 30.000000 1.680000
endloop
endfacet
facet normal 0.000000 1.000000 0.000000
outer loop
vertex -1.429999 30.000000 1.680000
vertex -1.429999 30.000000 1.429999
vertex -1.680000 30.000000 1.429999
endloop
endfacet
facet normal 0.000000 1.000000 0.000000
outer loop
vertex -30.000000 30.000000 1.429999
vertex -30.000000 30.000000 1.680000
vertex -1.680000 30.000000 1.680000
endloop
endfacet
facet normal 0.000000 1.000000 0.000000
outer loop
vertex -1.680000 30.000000 1.680000
vertex -1.680000 30.000000 1.429999
vertex -30.000000 30.000000 1.429999
endloop
endfacet
facet normal 0.000000 1.000000 0.000000
outer loop
vertex -30.000000 30.000000 1.000000
vertex -30.000000 30.000000 1.429999
vertex -1.680000 30.000000 1.429999
endloop
endfacet
facet normal 0.000000 1.000000 0.000000
outer loop
vertex -1.680000 30.000000 1.429999
vertex -1.680000 30.000000 1.000000
vertex -30.000000 30.000000 1.000000
endloop
endfacet
facet normal 0.000000 1.000000 0.000000
outer loop
vertex -30.000000 30.000000 -1.000000
vertex -30.000000 30.000000 1.000000
vertex -1.680000 30.000000 1.000000
endloop
endfacet
facet normal 0.000000 1.000000 0.000000
outer loop
vertex -1.680000 30.000000 1.000000
vertex -1.680000 30.000000 -1.000000
vertex -30.000000 30.000000 -1.000000
endloop
endfacet
facet normal 0.000000 1.000000 0.000000
outer loop
vertex -30.000000 30.000000 1.680000
vertex -30.000000 30.000000 30.000000
vertex -1.680000 30.000000 30.000000
endloop
endfacet
facet normal 0.000000 1.000000 0.000000
outer loop
vertex -1.680000 30.000000 30.000000
vertex -1.680000 30.000000 1.680000
vertex -30.000000 30.000000 1.680000
endloop
endfacet
facet normal 0.000000 1.000000 0.000000
outer loop
vertex -30.000000 30.000000 -30.000000
vertex -30.000000 30.000000 -1.680000
vertex -1.680000 30.000000 -1.680000
endloop
endfacet
facet normal 0.000000 1.000000 0.000000
outer loop
vertex -1.680000 30.000000 -1.680000
vertex -1.680000 30.000000 -30.000000
vertex -30.000000 30.000000 -30.000000
endloop
endfacet
facet normal 0.000000 1.000000 0.000000
outer loop
vertex -30.000000 30.000000 -1.680000
vertex -30.000000 30.000000 -1.430000
vertex -1.680000 30.000000 -1.430000
endloop
endfacet
facet normal 0.000000 1.000000 0.000000
outer loop
vertex -1.680000 30.000000 -1.430000
vertex -1.680000 30.000000 -1.680000
vertex -30.000000 30.000000 -1.680000
endloop
endfacet
facet normal 0.000000 1.000000 0.000000
outer loop
vertex -30.000000 30.000000 -1.430000
vertex -30.000000 30.000000 -1.000000
vertex -1.680000 30.000000 -1.000000
endloop
endfacet
facet normal 0.000000 1.000000 0.000000
outer loop
vertex -1.680000 30.000000 -1.000000
vertex -1.680000 30.000000 -1.430000
vertex -30.000000 30.000000 -1.430000
endloop
endfacet
endsolid Exported from Blender-2.76 (sub 0)
